<svg width="68" height="43" viewBox="0 0 68 43" fill="none" xmlns="http://www.w3.org/2000/svg">
<path d="M39.8428 12.3519L39.4949 13.2895L39.8428 12.3519ZM0.858722 9.19259C0.615161 9.68826 0.81954 10.2875 1.31522 10.5311L9.39275 14.5002C9.88843 14.7437 10.4877 14.5393 10.7313 14.0437C10.9748 13.548 10.7704 12.9487 10.2748 12.7051L3.09474 9.1771L6.62278 1.99706C6.86634 1.50138 6.66197 0.902114 6.16629 0.658553C5.67061 0.414991 5.07134 0.619372 4.82778 1.11505L0.858722 9.19259ZM66.5371 41.8994C67.5144 41.6874 67.5143 41.6869 67.5141 41.6863C67.5141 41.686 67.5139 41.6853 67.5138 41.6847C67.5135 41.6834 67.5132 41.6819 67.5128 41.68C67.5119 41.6762 67.5108 41.6712 67.5094 41.6649C67.5065 41.6522 67.5025 41.6344 67.4972 41.6117C67.4867 41.5662 67.4711 41.5008 67.4502 41.4166C67.4084 41.2481 67.3451 41.0041 67.2571 40.6932C67.0811 40.0714 66.8063 39.181 66.4073 38.0901C65.6098 35.9093 64.3135 32.9204 62.3137 29.6708C58.3126 23.1689 51.4805 15.6032 40.1906 11.4144L39.4949 13.2895C50.2641 17.2851 56.7792 24.4932 60.6104 30.719C62.5268 33.8331 63.7681 36.6965 64.529 38.777C64.9093 39.8168 65.1689 40.6593 65.3326 41.2378C65.4145 41.527 65.4723 41.75 65.5091 41.8984C65.5275 41.9726 65.5407 42.0282 65.5491 42.0641C65.5532 42.082 65.5562 42.095 65.5579 42.1029C65.5588 42.1069 65.5594 42.1096 65.5598 42.111C65.5599 42.1118 65.56 42.1121 65.56 42.1122C65.56 42.1123 65.56 42.1121 65.56 42.1121C65.5599 42.1118 65.5598 42.1115 66.5371 41.8994ZM40.1906 11.4144C29.016 7.26826 19.3562 6.57552 12.4767 6.92485C9.03763 7.09948 6.29346 7.53447 4.40139 7.92837C3.45526 8.12534 2.72185 8.31211 2.22076 8.45107C1.97021 8.52055 1.77769 8.57809 1.64567 8.619C1.57966 8.63945 1.52876 8.65574 1.49329 8.66729C1.47555 8.67307 1.46167 8.67766 1.45168 8.68098C1.44669 8.68265 1.44267 8.684 1.43962 8.68503C1.4381 8.68554 1.43683 8.68597 1.43579 8.68632C1.43528 8.6865 1.43468 8.6867 1.43443 8.68678C1.4339 8.68696 1.43343 8.68712 1.75623 9.63359C2.07902 10.5801 2.07867 10.5802 2.07839 10.5803C2.07837 10.5803 2.07816 10.5804 2.07813 10.5804C2.07807 10.5804 2.07826 10.5803 2.07869 10.5802C2.07955 10.5799 2.08138 10.5793 2.08417 10.5783C2.08976 10.5765 2.0992 10.5733 2.11247 10.569C2.13899 10.5604 2.18078 10.547 2.23754 10.5294C2.35107 10.4942 2.52444 10.4423 2.75522 10.3783C3.21681 10.2503 3.90789 10.074 4.80902 9.88639C6.61145 9.51115 9.25287 9.09113 12.5781 8.92228C19.2271 8.58465 28.6106 9.25108 39.4949 13.2895L40.1906 11.4144Z" fill="#5763AE"/>
</svg>
