<svg width="14" height="46" viewBox="0 0 14 46" fill="none" xmlns="http://www.w3.org/2000/svg">
<path d="M12.6136 23.2423L11.6293 23.4192L11.6293 23.4192L12.6136 23.2423ZM0.824074 2.58124C0.2804 2.67838 -0.0815848 3.19786 0.0155588 3.74154L1.59861 12.6012C1.69575 13.1449 2.21524 13.5069 2.75891 13.4097C3.30258 13.3126 3.66457 12.7931 3.56743 12.2494L2.16027 4.37416L10.0355 2.967C10.5792 2.86986 10.9412 2.35038 10.8441 1.8067C10.7469 1.26303 10.2274 0.901042 9.68376 0.998186L0.824074 2.58124ZM2.57617 44.7529C3.13042 45.5853 3.1308 45.585 3.13123 45.5847C3.13144 45.5846 3.13192 45.5843 3.13233 45.584C3.13316 45.5835 3.13418 45.5828 3.13538 45.582C3.13779 45.5803 3.14095 45.5782 3.14485 45.5756C3.15264 45.5703 3.16338 45.563 3.17696 45.5537C3.20412 45.5351 3.24267 45.5084 3.29176 45.4738C3.38992 45.4045 3.53033 45.3033 3.70627 45.1709C4.05803 44.9062 4.55263 44.5165 5.13615 44.008C6.3015 42.9924 7.83076 41.4951 9.2857 39.5656C12.1935 35.7093 14.8536 30.0536 13.5978 23.0654L11.6293 23.4192C12.7532 29.6733 10.3946 34.773 7.6888 38.3614C6.33693 40.1543 4.91065 41.5516 3.82216 42.5002C3.27876 42.9738 2.82187 43.3334 2.50387 43.5727C2.34493 43.6923 2.22089 43.7816 2.13833 43.8399C2.09705 43.869 2.06616 43.8904 2.04648 43.9039C2.03664 43.9106 2.0296 43.9154 2.02548 43.9182C2.02341 43.9196 2.02208 43.9205 2.02148 43.9209C2.02118 43.9211 2.02107 43.9211 2.02114 43.9211C2.02118 43.9211 2.02137 43.9209 2.02139 43.9209C2.02163 43.9208 2.02192 43.9206 2.57617 44.7529ZM13.5978 23.0654C12.3723 16.2458 9.38082 11.177 6.69587 7.81416C5.35342 6.13278 4.08538 4.8749 3.1478 4.03362C2.67881 3.61281 2.29187 3.29565 2.01876 3.08131C1.88219 2.97413 1.77401 2.89261 1.6982 2.83663C1.66029 2.80865 1.63046 2.78704 1.60921 2.7718C1.59858 2.76418 1.5901 2.75816 1.58383 2.75372C1.58069 2.7515 1.5781 2.74969 1.57607 2.74826C1.57506 2.74755 1.57418 2.74694 1.57345 2.74643C1.57308 2.74617 1.57264 2.74586 1.57246 2.74573C1.57205 2.74544 1.57167 2.74518 0.999968 3.56564C0.428262 4.3861 0.427958 4.38589 0.42769 4.3857C0.427647 4.38567 0.427414 4.38551 0.427328 4.38545C0.427156 4.38533 0.427124 4.38531 0.427229 4.38538C0.427441 4.38553 0.428205 4.38607 0.429514 4.38699C0.432133 4.38884 0.436932 4.39225 0.443851 4.39721C0.45769 4.40713 0.480003 4.42327 0.510305 4.44564C0.570914 4.49039 0.663445 4.56003 0.784009 4.65465C1.02518 4.84392 1.37823 5.13291 1.81211 5.52222C2.68026 6.3012 3.86943 7.47955 5.13293 9.06205C7.65987 12.227 10.4752 16.9965 11.6293 23.4192L13.5978 23.0654Z" fill="#5763AE"/>
</svg>
