<?xml version="1.0" standalone="no"?>
<!DOCTYPE svg PUBLIC "-//W3C//DTD SVG 20010904//EN"
 "http://www.w3.org/TR/2001/REC-SVG-20010904/DTD/svg10.dtd">
<svg version="1.0" xmlns="http://www.w3.org/2000/svg"
 width="260.000000pt" height="260.000000pt" viewBox="0 0 260.000000 260.000000"
 preserveAspectRatio="xMidYMid meet">
<metadata>
Created by potrace 1.14, written by Peter Selinger 2001-2017
</metadata>
<g transform="translate(0.000000,260.000000) scale(0.100000,-0.100000)"
fill="#000000" stroke="none">
<path d="M1441 1984 c-28 -35 -26 -73 4 -130 59 -111 2 -206 -123 -203 -37 0
-37 0 18 19 68 23 90 49 90 105 0 104 -129 162 -184 83 -38 -54 -8 -118 57
-118 16 0 26 -4 22 -10 -3 -5 -30 -10 -58 -10 -139 -1 -268 -42 -304 -97 -9
-13 -19 -21 -23 -18 -19 12 -34 -88 -20 -132 17 -51 27 -60 22 -19 -4 38 13
57 23 26 8 -26 29 -21 33 7 2 14 -4 23 -17 28 -25 8 -18 29 15 44 33 15 74 13
104 -4 47 -27 140 -14 140 19 0 14 -81 36 -138 37 -30 0 -33 2 -17 9 34 15 99
11 207 -11 187 -39 357 -26 443 33 64 44 94 128 57 161 -31 28 -48 20 -86 -43
-21 -34 -54 -72 -74 -85 -44 -29 -142 -56 -158 -44 -5 4 -21 6 -35 3 -23 -5
-22 -4 7 23 39 34 54 63 54 101 0 16 12 47 26 68 25 36 26 41 15 89 -21 94
-60 120 -100 69z m-401 -354 c0 -5 -20 -23 -45 -40 -48 -33 -64 -21 -22 17 31
29 67 41 67 23z"/>
<path d="M230 1884 c0 -3 12 -16 27 -27 17 -14 67 -30 142 -45 180 -36 279
-82 380 -176 41 -38 43 -39 22 -9 -37 55 -112 112 -206 158 -125 61 -365 126
-365 99z"/>
<path d="M557 1694 c32 -70 41 -191 23 -310 -7 -47 -11 -87 -9 -88 2 -2 15 -7
28 -11 23 -7 23 -6 17 38 -4 25 -9 106 -11 179 -4 136 -12 182 -40 224 -29 44
-34 24 -8 -32z"/>
<path d="M838 1550 c9 -21 18 -35 20 -30 3 9 -25 70 -33 70 -2 0 4 -18 13 -40z"/>
<path d="M1338 1563 c7 -3 16 -2 19 1 4 3 -2 6 -13 5 -11 0 -14 -3 -6 -6z"/>
<path d="M1820 1487 c-27 -17 -51 -22 -100 -22 -36 1 -72 3 -80 5 -9 3 -15 -1
-15 -10 0 -12 15 -15 78 -14 42 1 77 -2 77 -5 0 -4 -29 -36 -66 -71 -82 -82
-107 -120 -98 -154 8 -35 20 -33 40 7 9 17 64 78 120 135 57 57 104 107 104
112 0 4 3 15 6 24 9 23 -23 19 -66 -7z"/>
<path d="M861 1450 c-1 -74 -27 -114 -92 -144 -28 -13 -56 -32 -64 -42 -13
-19 -43 -21 -215 -15 -27 0 -40 -6 -57 -27 -13 -15 -23 -30 -23 -34 0 -14 140
-8 213 8 114 26 189 72 223 135 22 44 34 113 24 145 -7 25 -8 22 -9 -26z"/>
<path d="M1293 1460 c-80 -21 -95 -28 -170 -77 -53 -35 -98 -93 -90 -116 2 -6
11 2 20 20 26 50 144 136 204 151 15 3 74 6 130 5 98 -1 102 -1 90 18 -16 25
-86 25 -184 -1z"/>
<path d="M947 1393 c-4 -3 -7 -25 -7 -47 0 -23 -4 -57 -10 -76 -8 -27 -7 -38
4 -49 27 -26 43 -6 50 61 9 81 -10 138 -37 111z"/>
<path d="M1385 1346 c-44 -19 -117 -51 -163 -71 -67 -30 -93 -36 -132 -33 -49
3 -49 3 -30 -16 39 -40 204 -16 333 48 49 25 69 31 75 22 4 -7 22 -23 40 -36
31 -23 43 -50 22 -50 -16 0 -12 -20 6 -27 32 -12 36 13 11 68 -13 30 -28 65
-32 79 -9 31 -24 50 -39 50 -6 0 -47 -16 -91 -34z"/>
<path d="M1692 1229 c-18 -5 -30 -14 -27 -19 3 -5 19 -5 38 1 50 15 165 13
248 -5 95 -20 90 -18 233 -84 99 -46 123 -53 145 -46 14 5 26 14 26 19 0 24
-153 85 -275 110 -138 28 -335 41 -388 24z"/>
<path d="M1171 1018 c1 -35 4 -51 6 -35 4 27 22 38 24 15 1 -7 5 1 8 17 9 35
-3 65 -24 65 -12 0 -15 -14 -14 -62z"/>
<path d="M1248 1068 c7 -7 13 -35 14 -62 l2 -51 3 50 c3 27 9 55 15 62 8 10 4
13 -18 13 -22 0 -25 -3 -16 -12z"/>
<path d="M1397 1073 c-13 -12 -7 -51 8 -57 20 -7 19 -43 0 -49 -11 -4 -10 -4
2 -3 25 2 29 44 7 60 -18 14 -13 53 6 41 5 -3 10 -1 10 4 0 12 -23 15 -33 4z"/>
<path d="M1468 1068 c7 -7 13 -35 14 -62 l2 -51 3 50 c3 27 9 55 15 62 8 10 4
13 -18 13 -22 0 -25 -3 -16 -12z"/>
<path d="M1630 1073 c0 -5 12 -9 27 -10 19 -1 22 1 12 8 -17 11 -39 12 -39 2z"/>
<path d="M1772 1068 c-17 -17 -15 -83 4 -99 22 -19 48 1 52 39 6 55 -27 89
-56 60z m48 -47 c0 -35 -15 -55 -34 -48 -19 8 -22 67 -4 85 17 17 38 -4 38
-37z"/>
<path d="M1097 1053 c-15 -53 -17 -78 -7 -63 9 13 14 11 32 -10 12 -14 19 -18
15 -8 -3 9 -9 33 -13 52 -7 41 -20 55 -27 29z"/>
<path d="M1531 1034 c-1 -47 18 -80 43 -71 9 4 16 12 15 19 0 10 -2 10 -6 1
-2 -7 -11 -13 -19 -13 -14 0 -20 18 -27 75 -3 24 -4 22 -6 -11z"/>
<path d="M1723 1015 c0 -33 2 -45 4 -27 2 18 2 45 0 60 -2 15 -4 0 -4 -33z"/>
<path d="M1592 1035 c0 -16 2 -22 5 -12 2 9 2 23 0 30 -3 6 -5 -1 -5 -18z"/>
<path d="M1683 1015 c0 -22 2 -30 4 -17 2 12 2 30 0 40 -3 9 -5 -1 -4 -23z"/>
<path d="M1328 1023 c7 -3 16 -2 19 1 4 3 -2 6 -13 5 -11 0 -14 -3 -6 -6z"/>
<path d="M840 1006 c-3 -3 -71 -9 -152 -14 -113 -7 -151 -13 -169 -27 l-24
-17 30 6 c71 15 371 26 429 15 68 -12 80 -7 37 15 -31 17 -142 33 -151 22z"/>
<path d="M2145 990 c-16 -4 -52 -8 -80 -9 -27 -1 -58 -8 -67 -15 -21 -15 -12
-29 11 -17 27 14 206 22 236 11 34 -13 44 -5 23 16 -18 18 -81 26 -123 14z"/>
<path d="M393 982 c-47 -7 -21 -22 39 -22 34 0 59 2 57 4 -9 9 -76 21 -96 18z"/>
<path d="M1913 973 c-26 -9 -12 -22 22 -21 19 1 34 2 33 3 -15 12 -46 21 -55
18z"/>
<path d="M1638 963 c6 -2 18 -2 25 0 6 3 1 5 -13 5 -14 0 -19 -2 -12 -5z"/>
</g>
</svg>
