<svg width="36" height="36" viewBox="0 0 36 36" fill="none" xmlns="http://www.w3.org/2000/svg">
<path fill-rule="evenodd" clip-rule="evenodd" d="M23.4753 33.6183V21.7789H27.4253L28.0143 17.1645H23.4753V14.2189C23.4753 12.8844 23.8427 11.9741 25.7478 11.9741L28.1755 11.9709V7.84696C27.7549 7.78963 26.3143 7.66223 24.6368 7.66223C21.1364 7.66223 18.74 9.81471 18.74 13.7635V17.1645H14.7773V21.7789H18.74V33.6183H23.4753Z" stroke="#5763AE" stroke-opacity="0.41" stroke-width="2.5"/>
<path fill-rule="evenodd" clip-rule="evenodd" d="M27.8387 33.6183H8.09677C4.25806 33.6183 2.06451 29.3717 2.06451 27.2484V8.13889C2.06451 5.48479 4.25806 2.29987 8.09677 2.29987H27.8387C31.6774 2.29987 34.4194 5.48479 34.4194 8.13889V27.2484C34.4194 29.9025 31.129 33.6183 27.8387 33.6183Z" stroke="#5763AE" stroke-opacity="0.41" stroke-width="2.8" stroke-linejoin="round"/>
</svg>
