<svg width="34" height="34" viewBox="0 0 34 34" fill="none" xmlns="http://www.w3.org/2000/svg">
<path d="M17 3.2121C21.506 3.2121 22.1205 3.2121 23.9639 3.2121C25.6024 3.2121 26.4217 3.60861 27.0361 3.80687C27.8554 4.20339 28.4699 4.40165 29.0843 4.99642C29.6988 5.5912 30.1084 6.18597 30.3133 6.97901C30.5181 7.57378 30.7229 8.36682 30.9277 9.95288C30.9277 11.7372 30.9277 12.1337 30.9277 16.6937C30.9277 21.2536 30.9277 21.6501 30.9277 23.4345C30.9277 25.0205 30.5181 25.8136 30.3133 26.4083C29.9036 27.2014 29.6988 27.7961 29.0843 28.3909C28.4699 28.9857 27.8554 29.3822 27.0361 29.5805C26.4217 29.7787 25.6024 29.977 23.9639 30.1752C22.1205 30.1752 21.7108 30.1752 17 30.1752C12.2892 30.1752 11.8795 30.1752 10.0361 30.1752C8.39759 30.1752 7.57831 29.7787 6.96386 29.5805C6.14458 29.1839 5.53012 28.9857 4.91566 28.3909C4.30121 27.7961 3.89157 27.2014 3.68675 26.4083C3.48193 25.8136 3.27711 25.0205 3.07229 23.4345C3.07229 21.6501 3.07229 21.2536 3.07229 16.6937C3.07229 12.1337 3.07229 11.7372 3.07229 9.95288C3.07229 8.36682 3.48193 7.57378 3.68675 6.97901C4.09639 6.18597 4.30121 5.5912 4.91566 4.99642C5.53012 4.40165 6.14458 4.00513 6.96386 3.80687C7.57831 3.60861 8.39759 3.41035 10.0361 3.2121C11.8795 3.2121 12.494 3.2121 17 3.2121ZM17 0.23822C12.2892 0.23822 11.8795 0.23822 10.0361 0.23822C8.19277 0.23822 6.96386 0.634738 5.93976 1.03125C4.91566 1.42777 3.89157 2.02255 2.86747 3.01384C1.84337 4.00513 1.43374 4.79817 0.819278 5.98772C0.40964 6.97901 0.204819 8.16856 0 9.95288C0 11.7372 0 12.332 0 16.6937C0 21.2536 0 21.6501 0 23.4345C0 25.2188 0.40964 26.4083 0.819278 27.3996C1.22892 28.3909 1.84337 29.3822 2.86747 30.3735C3.89157 31.3648 4.71085 31.7613 5.93976 32.3561C6.96386 32.7526 8.19277 32.9509 10.0361 33.1491C11.8795 33.1491 12.494 33.1491 17 33.1491C21.506 33.1491 22.1205 33.1491 23.9639 33.1491C25.8072 33.1491 27.0361 32.7526 28.0602 32.3561C29.0843 31.9596 30.1084 31.3648 31.1325 30.3735C32.1566 29.3822 32.5663 28.5892 33.1807 27.3996C33.5904 26.4083 33.7952 25.2188 34 23.4345C34 21.6501 34 21.0554 34 16.6937C34 12.332 34 11.7372 34 9.95288C34 8.16856 33.5904 6.97901 33.1807 5.98772C32.7711 4.99642 32.1566 4.00513 31.1325 3.01384C30.1084 2.02255 29.2892 1.62603 28.0602 1.03125C27.0361 0.634738 25.8072 0.436479 23.9639 0.23822C22.1205 0.23822 21.7108 0.23822 17 0.23822Z" fill="#5763AE" fill-opacity="0.41"/>
<path d="M17 8.16856C12.0843 8.16856 8.19277 11.9355 8.19277 16.6937C8.19277 21.4519 12.0843 25.2188 17 25.2188C21.9157 25.2188 25.8072 21.4519 25.8072 16.6937C25.8072 11.9355 21.9157 8.16856 17 8.16856ZM17 22.2449C13.9277 22.2449 11.2651 19.8658 11.2651 16.6937C11.2651 13.7198 13.7229 11.1424 17 11.1424C20.0723 11.1424 22.7349 13.5215 22.7349 16.6937C22.7349 19.6675 20.0723 22.2449 17 22.2449Z" fill="#5763AE" fill-opacity="0.41"/>
<path d="M26.012 9.95288C27.1432 9.95288 28.0602 9.06525 28.0602 7.9703C28.0602 6.87535 27.1432 5.98772 26.012 5.98772C24.8809 5.98772 23.9639 6.87535 23.9639 7.9703C23.9639 9.06525 24.8809 9.95288 26.012 9.95288Z" fill="#5763AE" fill-opacity="0.41"/>
</svg>
