<svg width="47" height="47" viewBox="0 0 47 47" fill="none" xmlns="http://www.w3.org/2000/svg">
<g filter="url(#filter0_biii_48_29)">
<circle cx="23.5" cy="23.5" r="23.5" transform="matrix(-1 0 0 1 47 0)" fill="#5C6DD7" fill-opacity="0.23"/>
</g>
<path d="M31.0607 21.9393C31.6464 22.5251 31.6464 23.4749 31.0607 24.0607L21.5147 33.6066C20.9289 34.1924 19.9792 34.1924 19.3934 33.6066C18.8076 33.0208 18.8076 32.0711 19.3934 31.4853L27.8787 23L19.3934 14.5147C18.8076 13.9289 18.8076 12.9792 19.3934 12.3934C19.9792 11.8076 20.9289 11.8076 21.5147 12.3934L31.0607 21.9393ZM28 21.5L30 21.5L30 24.5L28 24.5L28 21.5Z" fill="white"/>
<defs>
<filter id="filter0_biii_48_29" x="-20" y="-20" width="87" height="87" filterUnits="userSpaceOnUse" color-interpolation-filters="sRGB">
<feFlood flood-opacity="0" result="BackgroundImageFix"/>
<feGaussianBlur in="BackgroundImageFix" stdDeviation="10"/>
<feComposite in2="SourceAlpha" operator="in" result="effect1_backgroundBlur_48_29"/>
<feBlend mode="normal" in="SourceGraphic" in2="effect1_backgroundBlur_48_29" result="shape"/>
<feColorMatrix in="SourceAlpha" type="matrix" values="0 0 0 0 0 0 0 0 0 0 0 0 0 0 0 0 0 0 127 0" result="hardAlpha"/>
<feOffset dy="-4"/>
<feGaussianBlur stdDeviation="0.5"/>
<feComposite in2="hardAlpha" operator="arithmetic" k2="-1" k3="1"/>
<feColorMatrix type="matrix" values="0 0 0 0 0.67418 0 0 0 0 0.808388 0 0 0 0 0.791612 0 0 0 0.2 0"/>
<feBlend mode="normal" in2="shape" result="effect2_innerShadow_48_29"/>
<feColorMatrix in="SourceAlpha" type="matrix" values="0 0 0 0 0 0 0 0 0 0 0 0 0 0 0 0 0 0 127 0" result="hardAlpha"/>
<feOffset dx="-1"/>
<feGaussianBlur stdDeviation="0.5"/>
<feComposite in2="hardAlpha" operator="arithmetic" k2="-1" k3="1"/>
<feColorMatrix type="matrix" values="0 0 0 0 0.67418 0 0 0 0 0.808388 0 0 0 0 0.791612 0 0 0 0.5 0"/>
<feBlend mode="normal" in2="effect2_innerShadow_48_29" result="effect3_innerShadow_48_29"/>
<feColorMatrix in="SourceAlpha" type="matrix" values="0 0 0 0 0 0 0 0 0 0 0 0 0 0 0 0 0 0 127 0" result="hardAlpha"/>
<feOffset dx="1"/>
<feGaussianBlur stdDeviation="0.5"/>
<feComposite in2="hardAlpha" operator="arithmetic" k2="-1" k3="1"/>
<feColorMatrix type="matrix" values="0 0 0 0 0.67418 0 0 0 0 0.808388 0 0 0 0 0.791612 0 0 0 0.2 0"/>
<feBlend mode="normal" in2="effect3_innerShadow_48_29" result="effect4_innerShadow_48_29"/>
</filter>
</defs>
</svg>
